<?xml version="1.0" encoding="utf-8" standalone="no"?>
<!DOCTYPE svg PUBLIC "-//W3C//DTD SVG 1.1//EN"
  "http://www.w3.org/Graphics/SVG/1.1/DTD/svg11.dtd">
<svg xmlns:xlink="http://www.w3.org/1999/xlink" width="864pt" height="504pt" viewBox="0 0 864 504" xmlns="http://www.w3.org/2000/svg" version="1.1">
 <metadata>
  <rdf:RDF xmlns:dc="http://purl.org/dc/elements/1.1/" xmlns:cc="http://creativecommons.org/ns#" xmlns:rdf="http://www.w3.org/1999/02/22-rdf-syntax-ns#">
   <cc:Work>
    <dc:type rdf:resource="http://purl.org/dc/dcmitype/StillImage"/>
    <dc:date>2023-05-08T17:47:27.705513</dc:date>
    <dc:format>image/svg+xml</dc:format>
    <dc:creator>
     <cc:Agent>
      <dc:title>Matplotlib v3.7.1, https://matplotlib.org/</dc:title>
     </cc:Agent>
    </dc:creator>
   </cc:Work>
  </rdf:RDF>
 </metadata>
 <defs>
  <style type="text/css">*{stroke-linejoin: round; stroke-linecap: butt}</style>
 </defs>
 <g id="figure_1">
  <g id="patch_1">
   <path d="M 0 504 
L 864 504 
L 864 0 
L 0 0 
z
" style="fill: #ffffff"/>
  </g>
  <g id="axes_1">
   <g id="patch_2">
    <path d="M 108 448.56 
L 777.6 448.56 
L 777.6 60.48 
L 108 60.48 
z
" style="fill: #ffffff"/>
   </g>
   <g id="patch_3">
    <path d="M 124.246035 448.56 
L 124.246035 60.48 
L 205.795821 60.48 
L 205.795821 448.56 
z
" clip-path="url(#pe3ad398bb7)" style="fill: #e5e5e5; stroke: #e5e5e5; stroke-linejoin: miter"/>
   </g>
   <g id="patch_4">
    <path d="M 205.795821 448.56 
L 205.795821 60.48 
L 311.469471 60.48 
L 311.469471 448.56 
z
" clip-path="url(#pe3ad398bb7)" style="fill: #c5c5c5; stroke: #c5c5c5; stroke-linejoin: miter"/>
   </g>
   <g id="patch_5">
    <path d="M 311.469471 448.56 
L 311.469471 60.48 
L 413.42084 60.48 
L 413.42084 448.56 
z
" clip-path="url(#pe3ad398bb7)" style="fill: #e5e5e5; stroke: #e5e5e5; stroke-linejoin: miter"/>
   </g>
   <g id="patch_6">
    <path d="M 413.42084 448.56 
L 413.42084 60.48 
L 498.746016 60.48 
L 498.746016 448.56 
z
" clip-path="url(#pe3ad398bb7)" style="fill: #c5c5c5; stroke: #c5c5c5; stroke-linejoin: miter"/>
   </g>
   <g id="patch_7">
    <path d="M 498.746016 448.56 
L 498.746016 60.48 
L 592.361992 60.48 
L 592.361992 448.56 
z
" clip-path="url(#pe3ad398bb7)" style="fill: #e5e5e5; stroke: #e5e5e5; stroke-linejoin: miter"/>
   </g>
   <g id="patch_8">
    <path d="M 592.361992 448.56 
L 592.361992 60.48 
L 672.838841 60.48 
L 672.838841 448.56 
z
" clip-path="url(#pe3ad398bb7)" style="fill: #c5c5c5; stroke: #c5c5c5; stroke-linejoin: miter"/>
   </g>
   <g id="patch_9">
    <path d="M 672.838841 448.56 
L 672.838841 60.48 
L 777.6 60.48 
L 777.6 448.56 
z
" clip-path="url(#pe3ad398bb7)" style="fill: #e5e5e5; stroke: #e5e5e5; stroke-linejoin: miter"/>
   </g>
   <g id="matplotlib.axis_1">
    <g id="xtick_1">
     <g id="text_1">
      <!-- chr1D -->
      <g transform="translate(142.513897 466.957656) scale(0.15 -0.15)">
       <defs>
        <path id="DejaVuSans-63" d="M 3122 3366 
L 3122 2828 
Q 2878 2963 2633 3030 
Q 2388 3097 2138 3097 
Q 1578 3097 1268 2742 
Q 959 2388 959 1747 
Q 959 1106 1268 751 
Q 1578 397 2138 397 
Q 2388 397 2633 464 
Q 2878 531 3122 666 
L 3122 134 
Q 2881 22 2623 -34 
Q 2366 -91 2075 -91 
Q 1284 -91 818 406 
Q 353 903 353 1747 
Q 353 2603 823 3093 
Q 1294 3584 2113 3584 
Q 2378 3584 2631 3529 
Q 2884 3475 3122 3366 
z
" transform="scale(0.015625)"/>
        <path id="DejaVuSans-68" d="M 3513 2113 
L 3513 0 
L 2938 0 
L 2938 2094 
Q 2938 2591 2744 2837 
Q 2550 3084 2163 3084 
Q 1697 3084 1428 2787 
Q 1159 2491 1159 1978 
L 1159 0 
L 581 0 
L 581 4863 
L 1159 4863 
L 1159 2956 
Q 1366 3272 1645 3428 
Q 1925 3584 2291 3584 
Q 2894 3584 3203 3211 
Q 3513 2838 3513 2113 
z
" transform="scale(0.015625)"/>
        <path id="DejaVuSans-72" d="M 2631 2963 
Q 2534 3019 2420 3045 
Q 2306 3072 2169 3072 
Q 1681 3072 1420 2755 
Q 1159 2438 1159 1844 
L 1159 0 
L 581 0 
L 581 3500 
L 1159 3500 
L 1159 2956 
Q 1341 3275 1631 3429 
Q 1922 3584 2338 3584 
Q 2397 3584 2469 3576 
Q 2541 3569 2628 3553 
L 2631 2963 
z
" transform="scale(0.015625)"/>
        <path id="DejaVuSans-31" d="M 794 531 
L 1825 531 
L 1825 4091 
L 703 3866 
L 703 4441 
L 1819 4666 
L 2450 4666 
L 2450 531 
L 3481 531 
L 3481 0 
L 794 0 
L 794 531 
z
" transform="scale(0.015625)"/>
        <path id="DejaVuSans-44" d="M 1259 4147 
L 1259 519 
L 2022 519 
Q 2988 519 3436 956 
Q 3884 1394 3884 2338 
Q 3884 3275 3436 3711 
Q 2988 4147 2022 4147 
L 1259 4147 
z
M 628 4666 
L 1925 4666 
Q 3281 4666 3915 4102 
Q 4550 3538 4550 2338 
Q 4550 1131 3912 565 
Q 3275 0 1925 0 
L 628 0 
L 628 4666 
z
" transform="scale(0.015625)"/>
       </defs>
       <use xlink:href="#DejaVuSans-63"/>
       <use xlink:href="#DejaVuSans-68" x="54.980469"/>
       <use xlink:href="#DejaVuSans-72" x="118.359375"/>
       <use xlink:href="#DejaVuSans-31" x="159.472656"/>
       <use xlink:href="#DejaVuSans-44" x="223.095703"/>
      </g>
     </g>
    </g>
    <g id="xtick_2">
     <g id="text_2">
      <!-- chr2D -->
      <g transform="translate(236.125615 466.957656) scale(0.15 -0.15)">
       <defs>
        <path id="DejaVuSans-32" d="M 1228 531 
L 3431 531 
L 3431 0 
L 469 0 
L 469 531 
Q 828 903 1448 1529 
Q 2069 2156 2228 2338 
Q 2531 2678 2651 2914 
Q 2772 3150 2772 3378 
Q 2772 3750 2511 3984 
Q 2250 4219 1831 4219 
Q 1534 4219 1204 4116 
Q 875 4013 500 3803 
L 500 4441 
Q 881 4594 1212 4672 
Q 1544 4750 1819 4750 
Q 2544 4750 2975 4387 
Q 3406 4025 3406 3419 
Q 3406 3131 3298 2873 
Q 3191 2616 2906 2266 
Q 2828 2175 2409 1742 
Q 1991 1309 1228 531 
z
" transform="scale(0.015625)"/>
       </defs>
       <use xlink:href="#DejaVuSans-63"/>
       <use xlink:href="#DejaVuSans-68" x="54.980469"/>
       <use xlink:href="#DejaVuSans-72" x="118.359375"/>
       <use xlink:href="#DejaVuSans-32" x="159.472656"/>
       <use xlink:href="#DejaVuSans-44" x="223.095703"/>
      </g>
     </g>
    </g>
    <g id="xtick_3">
     <g id="text_3">
      <!-- chr3D -->
      <g transform="translate(339.938125 466.957656) scale(0.15 -0.15)">
       <defs>
        <path id="DejaVuSans-33" d="M 2597 2516 
Q 3050 2419 3304 2112 
Q 3559 1806 3559 1356 
Q 3559 666 3084 287 
Q 2609 -91 1734 -91 
Q 1441 -91 1130 -33 
Q 819 25 488 141 
L 488 750 
Q 750 597 1062 519 
Q 1375 441 1716 441 
Q 2309 441 2620 675 
Q 2931 909 2931 1356 
Q 2931 1769 2642 2001 
Q 2353 2234 1838 2234 
L 1294 2234 
L 1294 2753 
L 1863 2753 
Q 2328 2753 2575 2939 
Q 2822 3125 2822 3475 
Q 2822 3834 2567 4026 
Q 2313 4219 1838 4219 
Q 1578 4219 1281 4162 
Q 984 4106 628 3988 
L 628 4550 
Q 988 4650 1302 4700 
Q 1616 4750 1894 4750 
Q 2613 4750 3031 4423 
Q 3450 4097 3450 3541 
Q 3450 3153 3228 2886 
Q 3006 2619 2597 2516 
z
" transform="scale(0.015625)"/>
       </defs>
       <use xlink:href="#DejaVuSans-63"/>
       <use xlink:href="#DejaVuSans-68" x="54.980469"/>
       <use xlink:href="#DejaVuSans-72" x="118.359375"/>
       <use xlink:href="#DejaVuSans-33" x="159.472656"/>
       <use xlink:href="#DejaVuSans-44" x="223.095703"/>
      </g>
     </g>
    </g>
    <g id="xtick_4">
     <g id="text_4">
      <!-- chr4D -->
      <g transform="translate(433.576397 466.957656) scale(0.15 -0.15)">
       <defs>
        <path id="DejaVuSans-34" d="M 2419 4116 
L 825 1625 
L 2419 1625 
L 2419 4116 
z
M 2253 4666 
L 3047 4666 
L 3047 1625 
L 3713 1625 
L 3713 1100 
L 3047 1100 
L 3047 0 
L 2419 0 
L 2419 1100 
L 313 1100 
L 313 1709 
L 2253 4666 
z
" transform="scale(0.015625)"/>
       </defs>
       <use xlink:href="#DejaVuSans-63"/>
       <use xlink:href="#DejaVuSans-68" x="54.980469"/>
       <use xlink:href="#DejaVuSans-72" x="118.359375"/>
       <use xlink:href="#DejaVuSans-34" x="159.472656"/>
       <use xlink:href="#DejaVuSans-44" x="223.095703"/>
      </g>
     </g>
    </g>
    <g id="xtick_5">
     <g id="text_5">
      <!-- chr5D -->
      <g transform="translate(523.046973 466.957656) scale(0.15 -0.15)">
       <defs>
        <path id="DejaVuSans-35" d="M 691 4666 
L 3169 4666 
L 3169 4134 
L 1269 4134 
L 1269 2991 
Q 1406 3038 1543 3061 
Q 1681 3084 1819 3084 
Q 2600 3084 3056 2656 
Q 3513 2228 3513 1497 
Q 3513 744 3044 326 
Q 2575 -91 1722 -91 
Q 1428 -91 1123 -41 
Q 819 9 494 109 
L 494 744 
Q 775 591 1075 516 
Q 1375 441 1709 441 
Q 2250 441 2565 725 
Q 2881 1009 2881 1497 
Q 2881 1984 2565 2268 
Q 2250 2553 1709 2553 
Q 1456 2553 1204 2497 
Q 953 2441 691 2322 
L 691 4666 
z
" transform="scale(0.015625)"/>
       </defs>
       <use xlink:href="#DejaVuSans-63"/>
       <use xlink:href="#DejaVuSans-68" x="54.980469"/>
       <use xlink:href="#DejaVuSans-72" x="118.359375"/>
       <use xlink:href="#DejaVuSans-35" x="159.472656"/>
       <use xlink:href="#DejaVuSans-44" x="223.095703"/>
      </g>
     </g>
    </g>
    <g id="xtick_6">
     <g id="text_6">
      <!-- chr6D -->
      <g transform="translate(610.093385 466.957656) scale(0.15 -0.15)">
       <defs>
        <path id="DejaVuSans-36" d="M 2113 2584 
Q 1688 2584 1439 2293 
Q 1191 2003 1191 1497 
Q 1191 994 1439 701 
Q 1688 409 2113 409 
Q 2538 409 2786 701 
Q 3034 994 3034 1497 
Q 3034 2003 2786 2293 
Q 2538 2584 2113 2584 
z
M 3366 4563 
L 3366 3988 
Q 3128 4100 2886 4159 
Q 2644 4219 2406 4219 
Q 1781 4219 1451 3797 
Q 1122 3375 1075 2522 
Q 1259 2794 1537 2939 
Q 1816 3084 2150 3084 
Q 2853 3084 3261 2657 
Q 3669 2231 3669 1497 
Q 3669 778 3244 343 
Q 2819 -91 2113 -91 
Q 1303 -91 875 529 
Q 447 1150 447 2328 
Q 447 3434 972 4092 
Q 1497 4750 2381 4750 
Q 2619 4750 2861 4703 
Q 3103 4656 3366 4563 
z
" transform="scale(0.015625)"/>
       </defs>
       <use xlink:href="#DejaVuSans-63"/>
       <use xlink:href="#DejaVuSans-68" x="54.980469"/>
       <use xlink:href="#DejaVuSans-72" x="118.359375"/>
       <use xlink:href="#DejaVuSans-36" x="159.472656"/>
       <use xlink:href="#DejaVuSans-44" x="223.095703"/>
      </g>
     </g>
    </g>
    <g id="xtick_7">
     <g id="text_7">
      <!-- chr7D -->
      <g transform="translate(702.712389 466.957656) scale(0.15 -0.15)">
       <defs>
        <path id="DejaVuSans-37" d="M 525 4666 
L 3525 4666 
L 3525 4397 
L 1831 0 
L 1172 0 
L 2766 4134 
L 525 4134 
L 525 4666 
z
" transform="scale(0.015625)"/>
       </defs>
       <use xlink:href="#DejaVuSans-63"/>
       <use xlink:href="#DejaVuSans-68" x="54.980469"/>
       <use xlink:href="#DejaVuSans-72" x="118.359375"/>
       <use xlink:href="#DejaVuSans-37" x="159.472656"/>
       <use xlink:href="#DejaVuSans-44" x="223.095703"/>
      </g>
     </g>
    </g>
   </g>
   <g id="matplotlib.axis_2">
    <g id="ytick_1">
     <g id="line2d_1">
      <defs>
       <path id="mbb015ea887" d="M 0 0 
L -3.5 0 
" style="stroke: #000000; stroke-width: 0.8"/>
      </defs>
      <g>
       <use xlink:href="#mbb015ea887" x="108" y="448.56" style="stroke: #000000; stroke-width: 0.8"/>
      </g>
     </g>
     <g id="text_8">
      <!-- 6 -->
      <g transform="translate(91.45625 454.258828) scale(0.15 -0.15)">
       <use xlink:href="#DejaVuSans-36"/>
      </g>
     </g>
    </g>
    <g id="ytick_2">
     <g id="line2d_2">
      <g>
       <use xlink:href="#mbb015ea887" x="108" y="393.12" style="stroke: #000000; stroke-width: 0.8"/>
      </g>
     </g>
     <g id="text_9">
      <!-- 8 -->
      <g transform="translate(91.45625 398.818828) scale(0.15 -0.15)">
       <defs>
        <path id="DejaVuSans-38" d="M 2034 2216 
Q 1584 2216 1326 1975 
Q 1069 1734 1069 1313 
Q 1069 891 1326 650 
Q 1584 409 2034 409 
Q 2484 409 2743 651 
Q 3003 894 3003 1313 
Q 3003 1734 2745 1975 
Q 2488 2216 2034 2216 
z
M 1403 2484 
Q 997 2584 770 2862 
Q 544 3141 544 3541 
Q 544 4100 942 4425 
Q 1341 4750 2034 4750 
Q 2731 4750 3128 4425 
Q 3525 4100 3525 3541 
Q 3525 3141 3298 2862 
Q 3072 2584 2669 2484 
Q 3125 2378 3379 2068 
Q 3634 1759 3634 1313 
Q 3634 634 3220 271 
Q 2806 -91 2034 -91 
Q 1263 -91 848 271 
Q 434 634 434 1313 
Q 434 1759 690 2068 
Q 947 2378 1403 2484 
z
M 1172 3481 
Q 1172 3119 1398 2916 
Q 1625 2713 2034 2713 
Q 2441 2713 2670 2916 
Q 2900 3119 2900 3481 
Q 2900 3844 2670 4047 
Q 2441 4250 2034 4250 
Q 1625 4250 1398 4047 
Q 1172 3844 1172 3481 
z
" transform="scale(0.015625)"/>
       </defs>
       <use xlink:href="#DejaVuSans-38"/>
      </g>
     </g>
    </g>
    <g id="ytick_3">
     <g id="line2d_3">
      <g>
       <use xlink:href="#mbb015ea887" x="108" y="337.68" style="stroke: #000000; stroke-width: 0.8"/>
      </g>
     </g>
     <g id="text_10">
      <!-- 10 -->
      <g transform="translate(81.9125 343.378828) scale(0.15 -0.15)">
       <defs>
        <path id="DejaVuSans-30" d="M 2034 4250 
Q 1547 4250 1301 3770 
Q 1056 3291 1056 2328 
Q 1056 1369 1301 889 
Q 1547 409 2034 409 
Q 2525 409 2770 889 
Q 3016 1369 3016 2328 
Q 3016 3291 2770 3770 
Q 2525 4250 2034 4250 
z
M 2034 4750 
Q 2819 4750 3233 4129 
Q 3647 3509 3647 2328 
Q 3647 1150 3233 529 
Q 2819 -91 2034 -91 
Q 1250 -91 836 529 
Q 422 1150 422 2328 
Q 422 3509 836 4129 
Q 1250 4750 2034 4750 
z
" transform="scale(0.015625)"/>
       </defs>
       <use xlink:href="#DejaVuSans-31"/>
       <use xlink:href="#DejaVuSans-30" x="63.623047"/>
      </g>
     </g>
    </g>
    <g id="ytick_4">
     <g id="line2d_4">
      <g>
       <use xlink:href="#mbb015ea887" x="108" y="282.24" style="stroke: #000000; stroke-width: 0.8"/>
      </g>
     </g>
     <g id="text_11">
      <!-- 12 -->
      <g transform="translate(81.9125 287.938828) scale(0.15 -0.15)">
       <use xlink:href="#DejaVuSans-31"/>
       <use xlink:href="#DejaVuSans-32" x="63.623047"/>
      </g>
     </g>
    </g>
    <g id="ytick_5">
     <g id="line2d_5">
      <g>
       <use xlink:href="#mbb015ea887" x="108" y="226.8" style="stroke: #000000; stroke-width: 0.8"/>
      </g>
     </g>
     <g id="text_12">
      <!-- 14 -->
      <g transform="translate(81.9125 232.498828) scale(0.15 -0.15)">
       <use xlink:href="#DejaVuSans-31"/>
       <use xlink:href="#DejaVuSans-34" x="63.623047"/>
      </g>
     </g>
    </g>
    <g id="ytick_6">
     <g id="line2d_6">
      <g>
       <use xlink:href="#mbb015ea887" x="108" y="171.36" style="stroke: #000000; stroke-width: 0.8"/>
      </g>
     </g>
     <g id="text_13">
      <!-- 16 -->
      <g transform="translate(81.9125 177.058828) scale(0.15 -0.15)">
       <use xlink:href="#DejaVuSans-31"/>
       <use xlink:href="#DejaVuSans-36" x="63.623047"/>
      </g>
     </g>
    </g>
    <g id="ytick_7">
     <g id="line2d_7">
      <g>
       <use xlink:href="#mbb015ea887" x="108" y="115.92" style="stroke: #000000; stroke-width: 0.8"/>
      </g>
     </g>
     <g id="text_14">
      <!-- 18 -->
      <g transform="translate(81.9125 121.618828) scale(0.15 -0.15)">
       <use xlink:href="#DejaVuSans-31"/>
       <use xlink:href="#DejaVuSans-38" x="63.623047"/>
      </g>
     </g>
    </g>
    <g id="ytick_8">
     <g id="line2d_8">
      <g>
       <use xlink:href="#mbb015ea887" x="108" y="60.48" style="stroke: #000000; stroke-width: 0.8"/>
      </g>
     </g>
     <g id="text_15">
      <!-- 20 -->
      <g transform="translate(81.9125 66.178828) scale(0.15 -0.15)">
       <use xlink:href="#DejaVuSans-32"/>
       <use xlink:href="#DejaVuSans-30" x="63.623047"/>
      </g>
     </g>
    </g>
    <g id="text_16">
     <!-- $-{log}_{10}(p)$ -->
     <g transform="translate(74.7625 289.77) rotate(-90) scale(0.15 -0.15)">
      <defs>
       <path id="DejaVuSans-2212" d="M 678 2272 
L 4684 2272 
L 4684 1741 
L 678 1741 
L 678 2272 
z
" transform="scale(0.015625)"/>
       <path id="DejaVuSans-Oblique-6c" d="M 1172 4863 
L 1747 4863 
L 800 0 
L 225 0 
L 1172 4863 
z
" transform="scale(0.015625)"/>
       <path id="DejaVuSans-Oblique-6f" d="M 1625 -91 
Q 1009 -91 651 289 
Q 294 669 294 1325 
Q 294 1706 417 2101 
Q 541 2497 738 2766 
Q 1047 3184 1428 3384 
Q 1809 3584 2291 3584 
Q 2888 3584 3255 3212 
Q 3622 2841 3622 2241 
Q 3622 1825 3500 1412 
Q 3378 1000 3181 728 
Q 2875 309 2494 109 
Q 2113 -91 1625 -91 
z
M 891 1344 
Q 891 869 1089 633 
Q 1288 397 1691 397 
Q 2269 397 2648 901 
Q 3028 1406 3028 2181 
Q 3028 2634 2825 2865 
Q 2622 3097 2228 3097 
Q 1903 3097 1650 2945 
Q 1397 2794 1197 2484 
Q 1050 2253 970 1956 
Q 891 1659 891 1344 
z
" transform="scale(0.015625)"/>
       <path id="DejaVuSans-Oblique-67" d="M 3816 3500 
L 3219 434 
Q 3047 -456 2561 -893 
Q 2075 -1331 1253 -1331 
Q 950 -1331 690 -1286 
Q 431 -1241 206 -1147 
L 313 -588 
Q 525 -725 762 -790 
Q 1000 -856 1269 -856 
Q 1816 -856 2167 -557 
Q 2519 -259 2631 300 
L 2681 563 
Q 2441 288 2122 144 
Q 1803 0 1434 0 
Q 903 0 598 351 
Q 294 703 294 1319 
Q 294 1803 478 2267 
Q 663 2731 997 3091 
Q 1219 3328 1514 3456 
Q 1809 3584 2131 3584 
Q 2484 3584 2746 3420 
Q 3009 3256 3138 2956 
L 3238 3500 
L 3816 3500 
z
M 2950 2216 
Q 2950 2641 2750 2872 
Q 2550 3103 2181 3103 
Q 1953 3103 1747 3012 
Q 1541 2922 1394 2759 
Q 1156 2491 1023 2127 
Q 891 1763 891 1375 
Q 891 944 1092 712 
Q 1294 481 1672 481 
Q 2219 481 2584 976 
Q 2950 1472 2950 2216 
z
" transform="scale(0.015625)"/>
       <path id="DejaVuSans-28" d="M 1984 4856 
Q 1566 4138 1362 3434 
Q 1159 2731 1159 2009 
Q 1159 1288 1364 580 
Q 1569 -128 1984 -844 
L 1484 -844 
Q 1016 -109 783 600 
Q 550 1309 550 2009 
Q 550 2706 781 3412 
Q 1013 4119 1484 4856 
L 1984 4856 
z
" transform="scale(0.015625)"/>
       <path id="DejaVuSans-Oblique-70" d="M 3175 2156 
Q 3175 2616 2975 2859 
Q 2775 3103 2400 3103 
Q 2144 3103 1911 2972 
Q 1678 2841 1497 2591 
Q 1319 2344 1212 1994 
Q 1106 1644 1106 1300 
Q 1106 863 1306 627 
Q 1506 391 1875 391 
Q 2147 391 2380 519 
Q 2613 647 2778 891 
Q 2956 1147 3065 1494 
Q 3175 1841 3175 2156 
z
M 1394 2969 
Q 1625 3272 1939 3428 
Q 2253 3584 2638 3584 
Q 3175 3584 3472 3232 
Q 3769 2881 3769 2247 
Q 3769 1728 3584 1258 
Q 3400 788 3053 416 
Q 2822 169 2531 39 
Q 2241 -91 1919 -91 
Q 1547 -91 1294 64 
Q 1041 219 916 525 
L 556 -1331 
L -19 -1331 
L 922 3500 
L 1497 3500 
L 1394 2969 
z
" transform="scale(0.015625)"/>
       <path id="DejaVuSans-29" d="M 513 4856 
L 1013 4856 
Q 1481 4119 1714 3412 
Q 1947 2706 1947 2009 
Q 1947 1309 1714 600 
Q 1481 -109 1013 -844 
L 513 -844 
Q 928 -128 1133 580 
Q 1338 1288 1338 2009 
Q 1338 2731 1133 3434 
Q 928 4138 513 4856 
z
" transform="scale(0.015625)"/>
      </defs>
      <use xlink:href="#DejaVuSans-2212" transform="translate(0 0.015625)"/>
      <use xlink:href="#DejaVuSans-Oblique-6c" transform="translate(83.789062 0.015625)"/>
      <use xlink:href="#DejaVuSans-Oblique-6f" transform="translate(111.572266 0.015625)"/>
      <use xlink:href="#DejaVuSans-Oblique-67" transform="translate(172.753906 0.015625)"/>
      <use xlink:href="#DejaVuSans-31" transform="translate(236.230469 -16.390625) scale(0.7)"/>
      <use xlink:href="#DejaVuSans-30" transform="translate(280.766602 -16.390625) scale(0.7)"/>
      <use xlink:href="#DejaVuSans-28" transform="translate(328.037109 0.015625)"/>
      <use xlink:href="#DejaVuSans-Oblique-70" transform="translate(367.050781 0.015625)"/>
      <use xlink:href="#DejaVuSans-29" transform="translate(430.527344 0.015625)"/>
     </g>
    </g>
   </g>
   <g id="line2d_9">
    <path d="M 108 354.312 
L 777.6 354.312 
" clip-path="url(#pe3ad398bb7)" style="fill: none; stroke-dasharray: 5.55,2.4; stroke-dashoffset: 0; stroke: #000000; stroke-width: 1.5"/>
   </g>
   <g id="patch_10">
    <path d="M 108 448.56 
L 108 60.48 
" style="fill: none; stroke: #000000; stroke-width: 0.8; stroke-linejoin: miter; stroke-linecap: square"/>
   </g>
  </g>
  <g id="axes_2">
   <g id="PathCollection_1">
    <path d="M 669.959555 400.8272 
C 670.092157 400.8272 670.219345 400.774517 670.313109 400.680753 
C 670.406872 400.58699 670.459555 400.459802 670.459555 400.3272 
C 670.459555 400.194598 670.406872 400.06741 670.313109 399.973647 
C 670.219345 399.879883 670.092157 399.8272 669.959555 399.8272 
C 669.826954 399.8272 669.699765 399.879883 669.606002 399.973647 
C 669.512239 400.06741 669.459555 400.194598 669.459555 400.3272 
C 669.459555 400.459802 669.512239 400.58699 669.606002 400.680753 
C 669.699765 400.774517 669.826954 400.8272 669.959555 400.8272 
z
" clip-path="url(#pe3ad398bb7)" style="fill: #005ab5; stroke: #005ab5"/>
    <path d="M 669.959555 438.615225 
C 670.189228 438.615225 670.409525 438.523976 670.571928 438.361572 
C 670.734331 438.199169 670.825581 437.978873 670.825581 437.7492 
C 670.825581 437.519527 670.734331 437.299231 670.571928 437.136828 
C 670.409525 436.974424 670.189228 436.883175 669.959555 436.883175 
C 669.729883 436.883175 669.509586 436.974424 669.347183 437.136828 
C 669.18478 437.299231 669.09353 437.519527 669.09353 437.7492 
C 669.09353 437.978873 669.18478 438.199169 669.347183 438.361572 
C 669.509586 438.523976 669.729883 438.615225 669.959555 438.615225 
z
" clip-path="url(#pe3ad398bb7)" style="fill: #005ab5; stroke: #005ab5"/>
    <path d="M 669.959555 422.4488 
C 670.092157 422.4488 670.219345 422.396117 670.313109 422.302353 
C 670.406872 422.20859 670.459555 422.081402 670.459555 421.9488 
C 670.459555 421.816198 670.406872 421.68901 670.313109 421.595247 
C 670.219345 421.501483 670.092157 421.4488 669.959555 421.4488 
C 669.826954 421.4488 669.699765 421.501483 669.606002 421.595247 
C 669.512239 421.68901 669.459555 421.816198 669.459555 421.9488 
C 669.459555 422.081402 669.512239 422.20859 669.606002 422.302353 
C 669.699765 422.396117 669.826954 422.4488 669.959555 422.4488 
z
" clip-path="url(#pe3ad398bb7)" style="fill: #005ab5; stroke: #005ab5"/>
    <path d="M 669.959555 445.940707 
C 670.147082 445.940707 670.326954 445.866202 670.459555 445.7336 
C 670.592157 445.600998 670.666662 445.421127 670.666662 445.2336 
C 670.666662 445.046073 670.592157 444.866202 670.459555 444.7336 
C 670.326954 444.600998 670.147082 444.526493 669.959555 444.526493 
C 669.772028 444.526493 669.592157 444.600998 669.459555 444.7336 
C 669.326954 444.866202 669.252449 445.046073 669.252449 445.2336 
C 669.252449 445.421127 669.326954 445.600998 669.459555 445.7336 
C 669.592157 445.866202 669.772028 445.940707 669.959555 445.940707 
z
" clip-path="url(#pe3ad398bb7)" style="fill: #005ab5; stroke: #005ab5"/>
    <path d="M 669.959555 429.656 
C 670.092157 429.656 670.219345 429.603317 670.313109 429.509553 
C 670.406872 429.41579 670.459555 429.288602 670.459555 429.156 
C 670.459555 429.023398 670.406872 428.89621 670.313109 428.802447 
C 670.219345 428.708683 670.092157 428.656 669.959555 428.656 
C 669.826954 428.656 669.699765 428.708683 669.606002 428.802447 
C 669.512239 428.89621 669.459555 429.023398 669.459555 429.156 
C 669.459555 429.288602 669.512239 429.41579 669.606002 429.509553 
C 669.699765 429.603317 669.826954 429.656 669.959555 429.656 
z
" clip-path="url(#pe3ad398bb7)" style="fill: #005ab5; stroke: #005ab5"/>
    <path d="M 669.959555 431.3192 
C 670.092157 431.3192 670.219345 431.266517 670.313109 431.172753 
C 670.406872 431.07899 670.459555 430.951802 670.459555 430.8192 
C 670.459555 430.686598 670.406872 430.55941 670.313109 430.465647 
C 670.219345 430.371883 670.092157 430.3192 669.959555 430.3192 
C 669.826954 430.3192 669.699765 430.371883 669.606002 430.465647 
C 669.512239 430.55941 669.459555 430.686598 669.459555 430.8192 
C 669.459555 430.951802 669.512239 431.07899 669.606002 431.172753 
C 669.699765 431.266517 669.826954 431.3192 669.959555 431.3192 
z
" clip-path="url(#pe3ad398bb7)" style="fill: #005ab5; stroke: #005ab5"/>
    <path d="M 669.959555 437.4176 
C 670.092157 437.4176 670.219345 437.364917 670.313109 437.271153 
C 670.406872 437.17739 670.459555 437.050202 670.459555 436.9176 
C 670.459555 436.784998 670.406872 436.65781 670.313109 436.564047 
C 670.219345 436.470283 670.092157 436.4176 669.959555 436.4176 
C 669.826954 436.4176 669.699765 436.470283 669.606002 436.564047 
C 669.512239 436.65781 669.459555 436.784998 669.459555 436.9176 
C 669.459555 437.050202 669.512239 437.17739 669.606002 437.271153 
C 669.699765 437.364917 669.826954 437.4176 669.959555 437.4176 
z
" clip-path="url(#pe3ad398bb7)" style="fill: #005ab5; stroke: #005ab5"/>
   </g>
   <g id="PathCollection_2">
    <path d="M 674.057294 446.376825 
C 674.286966 446.376825 674.507263 446.285576 674.669666 446.123172 
C 674.832069 445.960769 674.923319 445.740473 674.923319 445.5108 
C 674.923319 445.281127 674.832069 445.060831 674.669666 444.898428 
C 674.507263 444.736024 674.286966 444.644775 674.057294 444.644775 
C 673.827621 444.644775 673.607324 444.736024 673.444921 444.898428 
C 673.282518 445.060831 673.191268 445.281127 673.191268 445.5108 
C 673.191268 445.740473 673.282518 445.960769 673.444921 446.123172 
C 673.607324 446.285576 673.827621 446.376825 674.057294 446.376825 
z
" clip-path="url(#pe3ad398bb7)" style="fill: #dc3220; stroke: #dc3220"/>
    <path d="M 674.057294 433.814 
C 674.189895 433.814 674.317083 433.761317 674.410847 433.667553 
C 674.50461 433.57379 674.557294 433.446602 674.557294 433.314 
C 674.557294 433.181398 674.50461 433.05421 674.410847 432.960447 
C 674.317083 432.866683 674.189895 432.814 674.057294 432.814 
C 673.924692 432.814 673.797504 432.866683 673.70374 432.960447 
C 673.609977 433.05421 673.557294 433.181398 673.557294 433.314 
C 673.557294 433.446602 673.609977 433.57379 673.70374 433.667553 
C 673.797504 433.761317 673.924692 433.814 674.057294 433.814 
z
" clip-path="url(#pe3ad398bb7)" style="fill: #dc3220; stroke: #dc3220"/>
    <path d="M 674.057294 432.7052 
C 674.189895 432.7052 674.317083 432.652517 674.410847 432.558753 
C 674.50461 432.46499 674.557294 432.337802 674.557294 432.2052 
C 674.557294 432.072598 674.50461 431.94541 674.410847 431.851647 
C 674.317083 431.757883 674.189895 431.7052 674.057294 431.7052 
C 673.924692 431.7052 673.797504 431.757883 673.70374 431.851647 
C 673.609977 431.94541 673.557294 432.072598 673.557294 432.2052 
C 673.557294 432.337802 673.609977 432.46499 673.70374 432.558753 
C 673.797504 432.652517 673.924692 432.7052 674.057294 432.7052 
z
" clip-path="url(#pe3ad398bb7)" style="fill: #dc3220; stroke: #dc3220"/>
    <path d="M 674.057294 435.2 
C 674.189895 435.2 674.317083 435.147317 674.410847 435.053553 
C 674.50461 434.95979 674.557294 434.832602 674.557294 434.7 
C 674.557294 434.567398 674.50461 434.44021 674.410847 434.346447 
C 674.317083 434.252683 674.189895 434.2 674.057294 434.2 
C 673.924692 434.2 673.797504 434.252683 673.70374 434.346447 
C 673.609977 434.44021 673.557294 434.567398 673.557294 434.7 
C 673.557294 434.832602 673.609977 434.95979 673.70374 435.053553 
C 673.797504 435.147317 673.924692 435.2 674.057294 435.2 
z
" clip-path="url(#pe3ad398bb7)" style="fill: #dc3220; stroke: #dc3220"/>
    <path d="M 674.057294 423.0032 
C 674.189895 423.0032 674.317083 422.950517 674.410847 422.856753 
C 674.50461 422.76299 674.557294 422.635802 674.557294 422.5032 
C 674.557294 422.370598 674.50461 422.24341 674.410847 422.149647 
C 674.317083 422.055883 674.189895 422.0032 674.057294 422.0032 
C 673.924692 422.0032 673.797504 422.055883 673.70374 422.149647 
C 673.609977 422.24341 673.557294 422.370598 673.557294 422.5032 
C 673.557294 422.635802 673.609977 422.76299 673.70374 422.856753 
C 673.797504 422.950517 673.924692 423.0032 674.057294 423.0032 
z
" clip-path="url(#pe3ad398bb7)" style="fill: #dc3220; stroke: #dc3220"/>
    <path d="M 413.568679 446.5108 
C 413.833883 446.5108 414.088259 446.405434 414.275786 446.217907 
C 414.463313 446.03038 414.568679 445.776003 414.568679 445.5108 
C 414.568679 445.245597 414.463313 444.99122 414.275786 444.803693 
C 414.088259 444.616166 413.833883 444.5108 413.568679 444.5108 
C 413.303476 444.5108 413.0491 444.616166 412.861573 444.803693 
C 412.674046 444.99122 412.568679 445.245597 412.568679 445.5108 
C 412.568679 445.776003 412.674046 446.03038 412.861573 446.217907 
C 413.0491 446.405434 413.303476 446.5108 413.568679 446.5108 
z
" clip-path="url(#pe3ad398bb7)" style="fill: #dc3220; stroke: #dc3220"/>
    <path d="M 413.568679 446.288 
C 413.701281 446.288 413.828469 446.235317 413.922233 446.141553 
C 414.015996 446.04779 414.068679 445.920602 414.068679 445.788 
C 414.068679 445.655398 414.015996 445.52821 413.922233 445.434447 
C 413.828469 445.340683 413.701281 445.288 413.568679 445.288 
C 413.436078 445.288 413.308889 445.340683 413.215126 445.434447 
C 413.121363 445.52821 413.068679 445.655398 413.068679 445.788 
C 413.068679 445.920602 413.121363 446.04779 413.215126 446.141553 
C 413.308889 446.235317 413.436078 446.288 413.568679 446.288 
z
" clip-path="url(#pe3ad398bb7)" style="fill: #dc3220; stroke: #dc3220"/>
    <path d="M 413.568679 426.0524 
C 413.701281 426.0524 413.828469 425.999717 413.922233 425.905953 
C 414.015996 425.81219 414.068679 425.685002 414.068679 425.5524 
C 414.068679 425.419798 414.015996 425.29261 413.922233 425.198847 
C 413.828469 425.105083 413.701281 425.0524 413.568679 425.0524 
C 413.436078 425.0524 413.308889 425.105083 413.215126 425.198847 
C 413.121363 425.29261 413.068679 425.419798 413.068679 425.5524 
C 413.068679 425.685002 413.121363 425.81219 413.215126 425.905953 
C 413.308889 425.999717 413.436078 426.0524 413.568679 426.0524 
z
" clip-path="url(#pe3ad398bb7)" style="fill: #dc3220; stroke: #dc3220"/>
    <path d="M 413.573553 446.5108 
C 413.838756 446.5108 414.093133 446.405434 414.28066 446.217907 
C 414.468187 446.03038 414.573553 445.776003 414.573553 445.5108 
C 414.573553 445.245597 414.468187 444.99122 414.28066 444.803693 
C 414.093133 444.616166 413.838756 444.5108 413.573553 444.5108 
C 413.30835 444.5108 413.053973 444.616166 412.866446 444.803693 
C 412.67892 444.99122 412.573553 445.245597 412.573553 445.5108 
C 412.573553 445.776003 412.67892 446.03038 412.866446 446.217907 
C 413.053973 446.405434 413.30835 446.5108 413.573553 446.5108 
z
" clip-path="url(#pe3ad398bb7)" style="fill: #dc3220; stroke: #dc3220"/>
    <path d="M 413.573553 406.6484 
C 413.706155 406.6484 413.833343 406.595717 413.927107 406.501953 
C 414.02087 406.40819 414.073553 406.281002 414.073553 406.1484 
C 414.073553 406.015798 414.02087 405.88861 413.927107 405.794847 
C 413.833343 405.701083 413.706155 405.6484 413.573553 405.6484 
C 413.440952 405.6484 413.313763 405.701083 413.22 405.794847 
C 413.126236 405.88861 413.073553 406.015798 413.073553 406.1484 
C 413.073553 406.281002 413.126236 406.40819 413.22 406.501953 
C 413.313763 406.595717 413.440952 406.6484 413.573553 406.6484 
z
" clip-path="url(#pe3ad398bb7)" style="fill: #dc3220; stroke: #dc3220"/>
    <path d="M 413.573553 417.7364 
C 413.706155 417.7364 413.833343 417.683717 413.927107 417.589953 
C 414.02087 417.49619 414.073553 417.369002 414.073553 417.2364 
C 414.073553 417.103798 414.02087 416.97661 413.927107 416.882847 
C 413.833343 416.789083 413.706155 416.7364 413.573553 416.7364 
C 413.440952 416.7364 413.313763 416.789083 413.22 416.882847 
C 413.126236 416.97661 413.073553 417.103798 413.073553 417.2364 
C 413.073553 417.369002 413.126236 417.49619 413.22 417.589953 
C 413.313763 417.683717 413.440952 417.7364 413.573553 417.7364 
z
" clip-path="url(#pe3ad398bb7)" style="fill: #dc3220; stroke: #dc3220"/>
    <path d="M 413.573553 447.1196 
C 413.706155 447.1196 413.833343 447.066917 413.927107 446.973153 
C 414.02087 446.87939 414.073553 446.752202 414.073553 446.6196 
C 414.073553 446.486998 414.02087 446.35981 413.927107 446.266047 
C 413.833343 446.172283 413.706155 446.1196 413.573553 446.1196 
C 413.440952 446.1196 413.313763 446.172283 413.22 446.266047 
C 413.126236 446.35981 413.073553 446.486998 413.073553 446.6196 
C 413.073553 446.752202 413.126236 446.87939 413.22 446.973153 
C 413.313763 447.066917 413.440952 447.1196 413.573553 447.1196 
z
" clip-path="url(#pe3ad398bb7)" style="fill: #dc3220; stroke: #dc3220"/>
   </g>
   <g id="matplotlib.axis_3">
    <g id="ytick_9">
     <g id="line2d_10">
      <g>
       <use xlink:href="#mbb015ea887" x="108" y="448.56" style="stroke: #000000; stroke-width: 0.8"/>
      </g>
     </g>
     <g id="text_17">
      <!-- 6 -->
      <g transform="translate(91.45625 454.258828) scale(0.15 -0.15)">
       <use xlink:href="#DejaVuSans-36"/>
      </g>
     </g>
    </g>
    <g id="ytick_10">
     <g id="line2d_11">
      <g>
       <use xlink:href="#mbb015ea887" x="108" y="393.12" style="stroke: #000000; stroke-width: 0.8"/>
      </g>
     </g>
     <g id="text_18">
      <!-- 8 -->
      <g transform="translate(91.45625 398.818828) scale(0.15 -0.15)">
       <use xlink:href="#DejaVuSans-38"/>
      </g>
     </g>
    </g>
    <g id="ytick_11">
     <g id="line2d_12">
      <g>
       <use xlink:href="#mbb015ea887" x="108" y="337.68" style="stroke: #000000; stroke-width: 0.8"/>
      </g>
     </g>
     <g id="text_19">
      <!-- 10 -->
      <g transform="translate(81.9125 343.378828) scale(0.15 -0.15)">
       <use xlink:href="#DejaVuSans-31"/>
       <use xlink:href="#DejaVuSans-30" x="63.623047"/>
      </g>
     </g>
    </g>
    <g id="ytick_12">
     <g id="line2d_13">
      <g>
       <use xlink:href="#mbb015ea887" x="108" y="282.24" style="stroke: #000000; stroke-width: 0.8"/>
      </g>
     </g>
     <g id="text_20">
      <!-- 12 -->
      <g transform="translate(81.9125 287.938828) scale(0.15 -0.15)">
       <use xlink:href="#DejaVuSans-31"/>
       <use xlink:href="#DejaVuSans-32" x="63.623047"/>
      </g>
     </g>
    </g>
    <g id="ytick_13">
     <g id="line2d_14">
      <g>
       <use xlink:href="#mbb015ea887" x="108" y="226.8" style="stroke: #000000; stroke-width: 0.8"/>
      </g>
     </g>
     <g id="text_21">
      <!-- 14 -->
      <g transform="translate(81.9125 232.498828) scale(0.15 -0.15)">
       <use xlink:href="#DejaVuSans-31"/>
       <use xlink:href="#DejaVuSans-34" x="63.623047"/>
      </g>
     </g>
    </g>
    <g id="ytick_14">
     <g id="line2d_15">
      <g>
       <use xlink:href="#mbb015ea887" x="108" y="171.36" style="stroke: #000000; stroke-width: 0.8"/>
      </g>
     </g>
     <g id="text_22">
      <!-- 16 -->
      <g transform="translate(81.9125 177.058828) scale(0.15 -0.15)">
       <use xlink:href="#DejaVuSans-31"/>
       <use xlink:href="#DejaVuSans-36" x="63.623047"/>
      </g>
     </g>
    </g>
    <g id="ytick_15">
     <g id="line2d_16">
      <g>
       <use xlink:href="#mbb015ea887" x="108" y="115.92" style="stroke: #000000; stroke-width: 0.8"/>
      </g>
     </g>
     <g id="text_23">
      <!-- 18 -->
      <g transform="translate(81.9125 121.618828) scale(0.15 -0.15)">
       <use xlink:href="#DejaVuSans-31"/>
       <use xlink:href="#DejaVuSans-38" x="63.623047"/>
      </g>
     </g>
    </g>
    <g id="ytick_16">
     <g id="line2d_17">
      <g>
       <use xlink:href="#mbb015ea887" x="108" y="60.48" style="stroke: #000000; stroke-width: 0.8"/>
      </g>
     </g>
     <g id="text_24">
      <!-- 20 -->
      <g transform="translate(81.9125 66.178828) scale(0.15 -0.15)">
       <use xlink:href="#DejaVuSans-32"/>
       <use xlink:href="#DejaVuSans-30" x="63.623047"/>
      </g>
     </g>
    </g>
   </g>
   <g id="line2d_18">
    <path d="M 108 354.312 
L 777.6 354.312 
" clip-path="url(#pe3ad398bb7)" style="fill: none; stroke-dasharray: 5.55,2.4; stroke-dashoffset: 0; stroke: #000000; stroke-width: 1.5"/>
   </g>
   <g id="patch_11">
    <path d="M 108 448.56 
L 108 60.48 
" style="fill: none; stroke: #000000; stroke-width: 0.8; stroke-linejoin: miter; stroke-linecap: square"/>
   </g>
  </g>
 </g>
 <defs>
  <clipPath id="pe3ad398bb7">
   <rect x="108" y="60.48" width="669.6" height="388.08"/>
  </clipPath>
 </defs>
</svg>
